# xmcd
#
# Track frame offsets: 
#        150
#        12920
#        29154
#        43322
#        68998
#        84483
#        93779
#        108242
#        120711
#        127586
#        146803
#        176605
#        192149
#        208343
#        221451
#        254016
#        266213
#        280655
#        295048
#        329761
#        347660
#
# Disc length: 4871 seconds
#
# Revision: 0
# Processed by: cddbd v1.5.2PL0 Copyright (c) Steve Scherf et al.
# Submitted via: ExactAudioCopyFreeDBPlugin 1.0
#
DISCID=4b130515
DTITLE=Glen Campbell - 1977 - Live at the Royal Festival Hall
DYEAR=1977
DGENRE=
TTITLE0=Sunflower
TTITLE1=If You Go Away
TTITLE2=God Only Knows
TTITLE3=Beach Boys Medley
TTITLE4=Southern Nights
TTITLE5=Try a Little Kindness
TTITLE6=Streets of London
TTITLE7=Loving You
TTITLE8=Medley - (Let Me Be Your) Teddy Bear - Loving You
TTITLE9=Dreams of the Everyday Housewife
TTITLE10=Medley - Stars - Rhinestone Cowboy
TTITLE11=By the Time I Get to Phoenix
TTITLE12=Galveston
TTITLE13=Wichita Lineman
TTITLE14=Macarthur Park
TTITLE15=This Is Sarah's Song
TTITLE16=Classical Gas
TTITLE17=William Tell Overture
TTITLE18=Soliloquy
TTITLE19=That's When the Music Takes Me
TTITLE20=Amazing Grace
EXTD=
EXTT0=
EXTT1=
EXTT2=
EXTT3=
EXTT4=
EXTT5=
EXTT6=
EXTT7=
EXTT8=
EXTT9=
EXTT10=
EXTT11=
EXTT12=
EXTT13=
EXTT14=
EXTT15=
EXTT16=
EXTT17=
EXTT18=
EXTT19=
EXTT20=
PLAYORDER=
